<svg width="144" height="143" viewBox="0 0 144 143" fill="none" xmlns="http://www.w3.org/2000/svg">
<g id="fluent:person-28-filled">
<path id="Vector" d="M107.625 81.9287C111.674 81.9287 115.558 83.5373 118.421 86.4006C121.284 89.2638 122.893 93.1473 122.893 97.1966V100.835C122.893 119.04 101.467 132.822 71.9998 132.822C42.5328 132.822 21.1069 119.757 21.1069 100.835V97.1966C21.1069 93.1473 22.7155 89.2638 25.5788 86.4006C28.4421 83.5373 32.3255 81.9287 36.3748 81.9287H107.625ZM71.9998 10.6787C76.0098 10.6787 79.9805 11.4685 83.6853 13.0031C87.3901 14.5377 90.7563 16.7869 93.5918 19.6224C96.4273 22.4579 98.6766 25.8241 100.211 29.5289C101.746 33.2337 102.536 37.2044 102.536 41.2144C102.536 45.2244 101.746 49.1952 100.211 52.8999C98.6766 56.6047 96.4273 59.9709 93.5918 62.8064C90.7563 65.6419 87.3901 67.8912 83.6853 69.4257C79.9805 70.9603 76.0098 71.7501 71.9998 71.7501C63.9012 71.7501 56.1343 68.533 50.4078 62.8064C44.6812 57.0799 41.4641 49.313 41.4641 41.2144C41.4641 33.1158 44.6812 25.349 50.4078 19.6224C56.1343 13.8959 63.9012 10.6787 71.9998 10.6787Z" fill="#532800"/>
</g>
</svg>
