<svg width="144" height="143" viewBox="0 0 144 143" fill="none" xmlns="http://www.w3.org/2000/svg">
<g id="iconoir:star-solid">
<path id="Vector" d="M51.7354 49.4012L67.1611 18.3362C67.6101 17.4371 68.3007 16.681 69.1554 16.1525C70.0102 15.6239 70.9952 15.344 72.0001 15.344C73.0051 15.344 73.9901 15.6239 74.8448 16.1525C75.6996 16.681 76.3902 17.4371 76.8392 18.3362L92.2648 49.4012L126.75 54.4124C127.745 54.5503 128.68 54.9651 129.451 55.6095C130.221 56.2538 130.794 57.1017 131.106 58.0564C131.417 59.0111 131.454 60.0341 131.212 61.0087C130.97 61.9833 130.458 62.8701 129.736 63.568L104.787 87.7337L110.677 121.874C111.431 126.256 106.8 129.593 102.84 127.527L72.0001 111.401L41.1548 127.527C37.2004 129.599 32.5692 126.256 33.3233 121.868L39.2133 87.7277L14.2639 63.5621C13.5454 62.8637 13.0372 61.9777 12.7971 61.0049C12.557 60.0321 12.5947 59.0114 12.9058 58.0589C13.2169 57.1064 13.789 56.2603 14.557 55.6167C15.325 54.9732 16.2582 54.558 17.2504 54.4183L51.7354 49.4012Z" fill="#031E2E" stroke="#031E2E" stroke-width="1.5" stroke-linecap="round" stroke-linejoin="round"/>
</g>
</svg>
