<?xml version="1.0" encoding="utf-8"?>
<!-- Generator: Adobe Illustrator 27.3.1, SVG Export Plug-In . SVG Version: 6.00 Build 0)  -->
<svg version="1.1" xmlns="http://www.w3.org/2000/svg" xmlns:xlink="http://www.w3.org/1999/xlink" x="0px" y="0px"
	 viewBox="0 0 568 222.2" style="enable-background:new 0 0 568 222.2;" xml:space="preserve">
<style type="text/css">
	.st0{display:none;}
	.st1{display:inline;fill:#141E29;}
	.st2{display:inline;fill:#F4FAFA;}
	.st3{fill:#42748D;}
	.st4{fill:#ED6A24;}
	.st5{display:inline;fill:#42748D;}
	.st6{display:inline;fill:#FCC558;}
	.st7{display:inline;fill:#ED6A24;}
</style>
<g id="Fundos" class="st0">
	<rect x="-31.1" y="-30.7" class="st1" width="635.6" height="283.5"/>
	<rect x="-31.1" y="-30.7" class="st2" width="635.6" height="283.5"/>
</g>
<g id="Tudo">
	<g>
		<g id="Logo">
			<g id="Pinguim">
				<circle id="Olho" class="st3" cx="103.2" cy="110.6" r="8.9"/>
				<path class="st4" d="M55.8,124.4c0-0.8-0.4-1.6-1.2-2.2c-0.9-0.8-2.3-1.5-3.5-1.3c-4.3,0.5-8.5,2.4-13,5.9
					c-1.3,1-2.5,1.9-3.7,2.8c-1.4,1-2.7,2-3.8,2.9c-0.9,0.8-1,1.6-0.9,2.1c0.2,1.5,1.9,2.2,4,3c3.3,1.3,7.1,1.9,12.3,1.9
					c1.6,0,3.2-0.1,5.1-0.2c0.4,0,5.2-1.1,5.2-3.6L55.8,124.4z"/>
				<path id="Pele__x28_F_x29_" class="st3" d="M143.9,61.1c-8.7-4.3-20.7-6.5-35.7-6.5c-19.4,0-34.6,3.8-45.3,11.2
					c-10.8,7.6-16.3,18-16.3,30.9l0,124.4l1.5-0.2l29.6,0.1l3,0.1l0.4-125.6c0-14.7,22.8-15.9,29.8-15.9c7.6,0,14.6,1.6,20.6,4.7
					l1.3,0.7l12.4-23.3L143.9,61.1z"/>
			</g>
			<g id="Agenda">
				<g>
					<path class="st4" d="M33.5,18.2c-0.1-2.6-0.3-4.9-0.5-6.8C31.8,2.8,29.6,0.7,27.1,0l0,0c-5.3-1.5-9.7,6.2-12,11.4h7.4
						c1.1-2,2.2-3.4,2.9-4.1c0.3,0.6,0.7,1.9,1,4.1c0.2,1.7,0.5,3.9,0.6,6.8c0.1,2.6,0.2,5.7,0.1,9.5c0,0.9-0.2,1.8-0.4,2.3
						c-0.4-0.3-1.1-0.9-2-2c0.1-0.4,0.2-0.9,0.2-1.4c0-3.1-2.2-5.6-5-5.6c-2.7,0-5,2.5-5,5.6c0,2.9,2,5.3,4.5,5.5
						c2.8,3.6,5.2,5.2,7.6,5.2c0.6,0,1.2-0.1,1.8-0.4c4.1-1.6,4.5-7.9,4.5-9.2C33.6,24.2,33.6,20.9,33.5,18.2z"/>
					<path class="st4" d="M209.7,19.7c-0.1-3-0.3-5.5-0.5-7.7c-1.1-8.9-3.4-11.1-5.8-11.8h0c-5.2-1.5-9.6,6-11.9,11.2h7.4
						c1.1-1.9,2.1-3.3,2.8-3.9c0.3,0.6,0.6,1.8,1,3.9c0.3,1.6,0.5,3.8,0.6,6.8c0.1,2.6,0.2,5.8,0.1,9.8c0,0.9-0.2,1.7-0.4,2.3
						c-0.4-0.3-1.2-1-2.1-2.2c0.1-0.4,0.1-0.8,0.1-1.2c0-3.1-2.2-5.6-5-5.6c-2.7,0-5,2.5-5,5.6c0,3,2.1,5.4,4.7,5.6
						c2.8,3.6,5.3,5.3,7.7,5.3c0.6,0,1.2-0.1,1.8-0.4c4.1-1.6,4.5-7.9,4.5-9.2C209.8,24.9,209.8,22.1,209.7,19.7z"/>
					<path class="st4" d="M150.6,18.2c-0.1-2.6-0.3-4.9-0.6-6.8c-1.1-8.3-3.4-10.5-5.8-11.2l0,0c-5.2-1.5-9.6,6-11.9,11.2h7.4
						c1.1-1.9,2.1-3.3,2.8-3.9c0.3,0.6,0.6,1.8,1,3.9c0.3,1.6,0.5,3.8,0.6,6.8c0.1,2.6,0.2,5.8,0.1,9.7c0,0.9-0.2,1.8-0.4,2.3
						c-0.5-0.3-1.2-1-2.2-2.3c0-0.1,0-0.3,0-0.4c0-3.1-2.2-5.6-5-5.6c-2.7,0-5,2.5-5,5.6s2.2,5.6,5,5.6c0.2,0,0.3,0,0.5,0
						c2.6,3.1,4.9,4.6,7.1,4.6c0.6,0,1.2-0.1,1.8-0.4c4.1-1.6,4.5-7.9,4.5-9.2C150.8,24.3,150.7,21,150.6,18.2z"/>
					<path class="st4" d="M93.5,18.2c-0.1-2.6-0.3-4.9-0.5-6.8C91.9,2.8,89.6,0.7,87.2,0l0,0c-5.3-1.5-9.7,6.2-12,11.4h7.4
						c1.1-2,2.2-3.4,2.9-4.1c0.3,0.6,0.7,1.9,1,4.1c0.2,1.6,0.5,3.9,0.6,6.8c0.1,2.6,0.2,5.7,0.1,9.5c0,0.9-0.2,1.8-0.4,2.3
						c-0.4-0.3-0.9-0.8-1.7-1.6c0.1-0.5,0.2-1,0.2-1.6c0-3.1-2.2-5.6-5-5.6c-2.7,0-5,2.5-5,5.6c0,2.8,1.9,5.1,4.3,5.5
						c2.8,3.5,5.2,5.1,7.6,5.1c0.6,0,1.2-0.1,1.8-0.4c4.1-1.6,4.5-7.9,4.5-9.2C93.7,24.2,93.7,20.9,93.5,18.2z"/>
				</g>
				<g>
					<path class="st3" d="M7.2,212.5c-2.1-2.5-1.7-7-1.7-7l0-0.2V29.1c0-1.4,0.2-2.7,0.6-3.8c2.4-7,7.6-7.2,7.8-7.2H27
						c-0.1-2.9-0.4-5.1-0.6-6.8h-3.9h-7.4H14c-0.1,0-9.9,0.1-13.9,11.7c-0.6,1.8-0.9,3.8-0.9,6C-0.5,51.3,1,164.3-0.9,204.9l0,0.1
						c-0.2,5,0.9,9.1,3.2,12c2.4,2.9,5.8,4.3,10.1,4.1l68.2,0.1l0-6.8l-68.3-0.1C10.1,214.4,8.3,213.8,7.2,212.5z"/>
					<path class="st3" d="M139.8,11.4h-7.4H93c0.2,1.9,0.4,4.2,0.5,6.8h50.6c-0.1-3-0.4-5.2-0.6-6.8H139.8z"/>
					<path class="st3" d="M220.7,29c0-2.1-0.3-4.1-0.9-5.8c-2.5-7.3-7.3-10.1-10.6-11.1c0.3,2.1,0.4,4.7,0.5,7.7
						c1.4,1,2.9,2.7,3.9,5.6c0.4,1.2,0.6,2.5,0.6,3.8v175.9c0,0.1-0.1,5.1-2.8,8.1c-1.3,1.5-3.2,2.2-5.6,2.2l-44.3-0.1c0,0,0,0,0,0
						c-0.9,0-1.7,0.4-2.3,1c-0.6,0.6-0.9,1.5-0.9,2.3c0,1.9,1.4,3.4,3.2,3.4l44.7,0.1l1.5,0v-0.1c3.4-0.4,6.2-1.8,8.3-4.2
						c4.5-5,4.6-12.5,4.6-12.8L220.7,29z"/>
					<path class="st3" d="M202.6,11.4h-3.8h-7.4H150c0.3,1.9,0.4,4.2,0.6,6.8h52.6C203.1,15.2,202.9,13,202.6,11.4z"/>
					<path class="st3" d="M82.6,11.4h-7.4H32.9c0.2,1.9,0.4,4.2,0.5,6.8h53.6c-0.1-2.9-0.4-5.1-0.6-6.8H82.6z"/>
				</g>
			</g>
		</g>
		<g id="Texto">
			<g>
				<path class="st4" d="M253.9,42c-1.7,1.5-2.6,3.7-2.6,6.6V52h17.1v6.2h-17.1v15h-7.3V48.6c0-4.7,1.5-8.5,4.6-11.2
					c3-2.7,7.2-4.1,12.6-4.1c2.2,0,4.3,0.2,6.3,0.7c1.9,0.5,3.6,1.2,5.1,2.1l-2.3,5.9c-2.3-1.6-5.2-2.4-8.7-2.4
					C258.2,39.7,255.7,40.5,253.9,42z"/>
				<path class="st4" d="M277.1,37.1c-0.9-0.8-1.3-1.8-1.3-3c0-1.2,0.4-2.2,1.3-3c0.9-0.8,1.9-1.2,3.2-1.2c1.3,0,2.3,0.4,3.2,1.1
					c0.9,0.8,1.3,1.7,1.3,2.9c0,1.2-0.4,2.3-1.3,3.1c-0.8,0.8-1.9,1.3-3.2,1.3C279.1,38.3,278,37.9,277.1,37.1z M276.8,43.2h7v29.9
					h-7V43.2z"/>
				<path class="st4" d="M298.4,71.6c-2.5-1.3-4.4-3.1-5.8-5.5c-1.4-2.3-2.1-5-2.1-7.9c0-3,0.7-5.6,2.1-7.9c1.4-2.3,3.3-4.1,5.7-5.4
					c2.4-1.3,5.2-2,8.4-2c3,0,5.5,0.6,7.8,1.8c2.2,1.2,3.9,2.9,5,5.2l-5.4,3.1c-0.9-1.4-1.9-2.4-3.2-3.1c-1.3-0.7-2.7-1-4.2-1
					c-2.6,0-4.8,0.9-6.5,2.6c-1.7,1.7-2.6,4-2.6,6.8c0,2.8,0.9,5.1,2.6,6.8c1.7,1.7,3.9,2.6,6.5,2.6c1.5,0,2.9-0.3,4.2-1
					c1.3-0.7,2.4-1.7,3.2-3.1l5.4,3.1c-1.2,2.2-2.9,4-5.1,5.2c-2.2,1.2-4.8,1.8-7.7,1.8C303.6,73.5,300.9,72.9,298.4,71.6z"/>
				<path class="st4" d="M354.4,43.2v29.9h-6.7v-3.9c-1.2,1.4-2.6,2.5-4.3,3.2c-1.7,0.7-3.6,1.1-5.6,1.1c-2.9,0-5.5-0.6-7.8-1.9
					c-2.3-1.3-4.1-3.1-5.4-5.4c-1.3-2.3-1.9-5-1.9-8.1c0-3.1,0.6-5.7,1.9-8s3.1-4.1,5.4-5.4c2.3-1.3,4.9-1.9,7.8-1.9
					c1.9,0,3.7,0.3,5.4,1s3,1.7,4.2,3v-3.6H354.4z M345,65c1.7-1.7,2.5-4,2.5-6.8c0-2.8-0.8-5.1-2.5-6.8c-1.7-1.7-3.8-2.6-6.4-2.6
					s-4.7,0.9-6.4,2.6c-1.7,1.7-2.5,4-2.5,6.8c0,2.8,0.8,5.1,2.5,6.8c1.7,1.7,3.8,2.6,6.4,2.6S343.3,66.7,345,65z"/>
			</g>
			<g>
				<path class="st3" d="M271.4,118.5c-3.8,3.2-5.7,8.1-5.7,14.6v5.7H304v17.3h-38.4v34h-21.6v-56.9c0-12,3.7-21.3,11.3-28
					c7.5-6.7,18-10,31.5-10c5.3,0,10.3,0.6,15,1.7c4.7,1.1,8.8,2.7,12.3,4.9l-6.7,17c-5.3-3.5-11.7-5.2-19.2-5.2
					S275.2,115.2,271.4,118.5z"/>
				<path class="st3" d="M352.5,120c4.2-1.8,9.1-2.7,14.6-2.7v19.2c-2.3-0.2-3.9-0.3-4.7-0.3c-5.9,0-10.6,1.7-14,5
					c-3.4,3.3-5.1,8.3-5.1,15V190h-20.8v-71.6h19.8v9.5C345,124.4,348.3,121.8,352.5,120z"/>
				<path class="st3" d="M380.6,105.1c-2.4-2.2-3.6-5-3.6-8.3c0-3.3,1.2-6,3.6-8.3c2.4-2.2,5.5-3.3,9.3-3.3c3.8,0,6.9,1.1,9.3,3.2
					c2.4,2.1,3.6,4.8,3.6,8c0,3.5-1.2,6.3-3.6,8.6c-2.4,2.3-5.5,3.4-9.3,3.4C386.1,108.4,383,107.3,380.6,105.1z M379.5,118.4h20.8
					V190h-20.8V118.4z"/>
				<path class="st3" d="M418.3,187.4c-2.5-2.5-3.7-5.6-3.7-9.3c0-3.8,1.2-6.9,3.7-9.3c2.5-2.4,5.5-3.5,9.2-3.5
					c3.6,0,6.7,1.2,9.2,3.5c2.5,2.4,3.7,5.4,3.7,9.3c0,3.7-1.2,6.8-3.7,9.3c-2.5,2.5-5.5,3.7-9.2,3.7
					C423.8,191.1,420.7,189.9,418.3,187.4z"/>
				<path class="st3" d="M455.6,105.1c-2.4-2.2-3.6-5-3.6-8.3c0-3.3,1.2-6,3.6-8.3c2.4-2.2,5.5-3.3,9.3-3.3c3.8,0,6.9,1.1,9.3,3.2
					c2.4,2.1,3.6,4.8,3.6,8c0,3.5-1.2,6.3-3.6,8.6c-2.4,2.3-5.5,3.4-9.3,3.4C461.1,108.4,458,107.3,455.6,105.1z M454.5,118.4h20.8
					V190h-20.8V118.4z"/>
				<path class="st3" d="M508.4,186.4c-6-3.2-10.7-7.5-14.1-13.1c-3.4-5.6-5.1-11.9-5.1-19c0-7.1,1.7-13.5,5.1-19
					c3.4-5.6,8.1-10,14.1-13.1c6-3.2,12.8-4.7,20.3-4.7c7.5,0,14.3,1.6,20.2,4.7c5.9,3.2,10.6,7.5,14,13.1c3.4,5.6,5.1,11.9,5.1,19
					c0,7.1-1.7,13.5-5.1,19c-3.4,5.6-8,10-14,13.1c-5.9,3.2-12.7,4.7-20.2,4.7C521.1,191.1,514.4,189.5,508.4,186.4z M541.8,168.7
					c3.4-3.6,5.1-8.4,5.1-14.5c0-6-1.7-10.9-5.1-14.4c-3.4-3.6-7.8-5.4-13.1-5.4s-9.7,1.8-13.2,5.4c-3.5,3.6-5.2,8.4-5.2,14.4
					c0,6,1.7,10.9,5.2,14.5c3.5,3.6,7.9,5.4,13.2,5.4S538.4,172.3,541.8,168.7z"/>
			</g>
		</g>
	</g>
</g>
<g id="Cores" class="st0">
</g>
</svg>
